<svg width="144" height="49" viewBox="0 0 144 49" fill="none" xmlns="http://www.w3.org/2000/svg">
<g clip-path="url(#clip0_30_499)">
<path d="M0 0.173584H10.8373C13.8514 0.173584 16.1881 1.04132 17.746 2.63796C19.0668 3.99164 19.778 5.90066 19.778 8.19149V8.26091C19.778 12.1831 17.7121 14.6475 14.698 15.7929L20.4892 24.4703H14.3932L9.31326 16.6953H5.21543V24.4703H0V0.173584ZM10.4986 11.9748C13.0386 11.9748 14.4948 10.5865 14.4948 8.53859V8.46917C14.4948 6.17834 12.937 4.99821 10.397 4.99821H5.21543V11.9748H10.4986Z" fill="#231F20"/>
<path d="M24.7227 0.173584H29.9381V24.4703H24.7227V0.173584Z" fill="#231F20"/>
<path d="M35.8643 0.173584H40.6733L51.7815 15.1334V0.173584H56.9292V24.4703H52.4927L41.012 9.02453V24.4703H35.8643V0.173584Z" fill="#231F20"/>
<path d="M62.6191 0.173584H67.8346V10.7947L77.4526 0.173584H83.7518L74.0999 10.4823L84.1921 24.4703H77.9268L70.5778 14.1268L67.8346 17.0424V24.4703H62.6191V0.173584Z" fill="#231F20"/>
<path d="M94.7918 0H99.6008L109.761 24.4702H104.308L102.141 19.0208H92.1163L89.9489 24.4702H84.6318L94.7918 0ZM100.278 14.3003L97.1285 6.42127L93.979 14.3003H100.278Z" fill="#231F20"/>
<path d="M113.419 0.173584H124.256C127.27 0.173584 129.607 1.04132 131.165 2.63796C132.486 3.99164 133.197 5.90066 133.197 8.19149V8.26091C133.197 12.1831 131.131 14.6475 128.117 15.7929L133.908 24.4703H127.812L122.732 16.6953H118.634V24.4703H113.419V0.173584ZM123.918 11.9748C126.458 11.9748 127.914 10.5865 127.914 8.53859V8.46917C127.914 6.17834 126.356 4.99821 123.816 4.99821H118.634V11.9748H123.918Z" fill="#231F20"/>
<path d="M138.141 0.173584H143.356V24.4703H138.141V0.173584Z" fill="#231F20"/>
<path d="M3.7934 31.4518C3.71599 32.3641 3.69664 32.7212 3.69664 34.1095V38.0565C3.69664 39.4647 3.71599 40.0994 3.7934 40.8928H0.0390625C0.135824 40.1788 0.155176 39.4846 0.155176 37.997V34.0699C0.155176 32.86 0.135824 32.3245 0.0390625 31.4518H3.7934ZM12.7873 31.4518C12.7099 32.5625 12.6906 32.86 12.6906 34.1294V36.45C12.6906 39.1672 12.5358 41.0713 12.2455 42.2217C11.6649 44.3836 10.349 46.01 8.22022 47.2595C7.11714 47.914 6.09147 48.3305 4.19496 48.8859C3.74985 47.557 3.26605 46.724 2.22103 45.4943C4.07884 45.1373 5.06581 44.8199 6.05277 44.2844C7.75577 43.3522 8.62662 42.182 8.93625 40.4366C9.05237 39.7027 9.14913 37.9573 9.14913 36.2318V34.169C9.14913 32.7212 9.12978 32.3046 9.03301 31.4518H12.7873Z" fill="#FF0000"/>
<path d="M33.1171 31.9675C35.5555 33.4352 36.8134 34.3476 38.439 35.855L36.1554 38.9491C34.4718 37.1442 32.8268 35.8352 30.8916 34.7641L33.1171 31.9675ZM31.0851 44.2845C33.0591 44.1258 35.091 43.6299 36.9101 42.8564C39.3485 41.825 41.0902 40.3375 42.5804 37.9574C43.3931 36.688 43.9157 35.5972 44.4769 34.0699C45.4251 35.2401 45.8702 35.6368 47.3216 36.7277C45.5606 40.635 43.7221 42.9754 41.0128 44.7605C38.9228 46.1489 37.0843 46.8827 33.4848 47.7356C32.7301 47.9141 32.614 47.9339 32.0914 48.0926L31.0851 44.2845Z" fill="#FF0000"/>
<path d="M73.0261 31.2138C72.9293 31.3923 72.8906 31.4518 72.7939 31.7096C72.7552 31.7691 72.7164 31.8881 72.6584 32.0071C72.581 32.2055 72.5229 32.3443 72.4842 32.4237C72.3165 32.8071 72.1875 33.0914 72.0972 33.2765L76.9546 33.217C77.7093 33.217 77.9222 33.1774 78.3867 32.9989L79.9929 34.6252C79.7607 35.0219 79.7026 35.1409 79.4317 36.0335C78.4447 39.3259 77.1288 41.9043 75.4258 43.8877C73.6647 45.9505 71.4779 47.5174 68.3041 49.0049C67.6655 47.7355 67.0656 46.962 65.9819 45.9901C68.7299 44.9588 70.7425 43.6894 72.4455 41.944C73.8776 40.4564 74.9613 38.5921 75.6773 36.3111L70.5296 36.3706C69.2717 38.4135 67.9751 39.8614 66.1367 41.349C65.1497 40.1986 64.6659 39.7623 63.3887 38.9689C65.7496 37.2632 67.2785 35.4583 68.5364 32.9195C69.0395 31.8881 69.2718 31.2336 69.3685 30.5394L73.0261 31.2138Z" fill="#FF0000"/>
<path d="M113.787 33.7922C113.497 34.1096 113.438 34.2087 113.187 34.8236C111.948 37.7987 110.284 39.8019 107.788 41.3887C107.11 40.4961 106.472 39.8614 105.62 39.2268C105.504 41.2895 105.175 42.7374 104.498 44.0464C103.82 45.3158 102.814 46.4463 101.479 47.3984C100.685 47.9537 100.027 48.3108 98.7501 48.9256C97.976 47.3587 97.6664 46.8827 96.5439 45.7125C98.6727 45.0183 100.066 44.1456 100.976 42.9556C101.905 41.7258 102.234 40.3176 102.234 37.6797C102.234 37.045 102.214 36.7475 102.117 36.3112H105.756C105.698 36.7078 105.678 36.8863 105.659 38.0169C105.659 38.0367 105.639 38.5127 105.639 38.7111C105.717 38.6582 105.865 38.5788 106.085 38.4731C107.497 37.7392 108.639 36.5492 109.336 35.1013H100.105C98.634 35.1013 97.9567 35.1409 97.0278 35.2401V31.7692C97.918 31.908 98.5759 31.9477 100.163 31.9477H110.303C111.387 31.9477 111.523 31.9278 111.968 31.7295L113.787 33.7922Z" fill="#FF0000"/>
<path d="M135.001 31.4518C134.924 32.3641 134.905 32.7212 134.905 34.1095V38.0565C134.905 39.4647 134.924 40.0994 135.001 40.8928H131.247C131.344 40.1788 131.363 39.4846 131.363 37.997V34.0699C131.363 32.86 131.344 32.3245 131.247 31.4518H135.001ZM144 31.4518C143.923 32.5625 143.903 32.86 143.903 34.1294V36.45C143.903 39.1672 143.749 41.0713 143.458 42.2217C142.878 44.3836 141.562 46.01 139.433 47.2595C138.33 47.914 137.304 48.3305 135.408 48.8859C134.963 47.557 134.479 46.724 133.434 45.4943C135.292 45.1373 136.279 44.8199 137.266 44.2844C138.969 43.3522 139.839 42.182 140.149 40.4366C140.265 39.7027 140.362 37.9573 140.362 36.2318V34.169C140.362 32.7212 140.343 32.3046 140.246 31.4518H144Z" fill="#FF0000"/>
</g>
<defs>
<clipPath id="clip0_30_499">
<rect width="144" height="49" fill="white"/>
</clipPath>
</defs>
</svg>
